<?xml version="1.0" encoding="UTF-8" standalone="no"?>
<svg
   width="266.112pt"
   height="266.112pt"
   viewBox="0 0 266.11201 266.11199"
   version="1.1"
   id="svg99"
   sodipodi:docname="logo.svg"
   inkscape:version="1.1.2 (0a00cf5339, 2022-02-04)"
   xmlns:inkscape="http://www.inkscape.org/namespaces/inkscape"
   xmlns:sodipodi="http://sodipodi.sourceforge.net/DTD/sodipodi-0.dtd"
   xmlns:xlink="http://www.w3.org/1999/xlink"
   xmlns="http://www.w3.org/2000/svg"
   xmlns:svg="http://www.w3.org/2000/svg"
   xmlns:rdf="http://www.w3.org/1999/02/22-rdf-syntax-ns#"
   xmlns:cc="http://creativecommons.org/ns#"
   xmlns:dc="http://purl.org/dc/elements/1.1/">
  <sodipodi:namedview
     id="namedview101"
     pagecolor="#ffffff"
     bordercolor="#666666"
     borderopacity="1.0"
     inkscape:pageshadow="2"
     inkscape:pageopacity="0.0"
     inkscape:pagecheckerboard="0"
     inkscape:document-units="pt"
     showgrid="false"
     inkscape:zoom="1.8097432"
     inkscape:cx="168.80848"
     inkscape:cy="187.59568"
     inkscape:window-width="1920"
     inkscape:window-height="1016"
     inkscape:window-x="0"
     inkscape:window-y="0"
     inkscape:window-maximized="1"
     inkscape:current-layer="svg99" />
  <metadata
     id="metadata2">
    <rdf:RDF>
      <cc:Work>
        <dc:type
           rdf:resource="http://purl.org/dc/dcmitype/StillImage" />
        <dc:date>2024-01-18T22:59:31.398173</dc:date>
        <dc:format>image/svg+xml</dc:format>
        <dc:creator>
          <cc:Agent>
            <dc:title>Matplotlib v3.7.2, https://matplotlib.org/</dc:title>
          </cc:Agent>
        </dc:creator>
      </cc:Work>
    </rdf:RDF>
  </metadata>
  <defs
     id="defs6">
    <style
       type="text/css"
       id="style4">*{stroke-linejoin: round; stroke-linecap: butt}</style>
    <clipPath
       id="p8c963f65ee-3">
      <rect
         x="103.104"
         y="41.472"
         width="266.112"
         height="266.112"
         id="rect94-6" />
    </clipPath>
    <clipPath
       id="clipPath528">
      <rect
         x="103.104"
         y="41.472"
         width="266.112"
         height="266.112"
         id="rect526" />
    </clipPath>
    <clipPath
       id="clipPath532">
      <rect
         x="103.104"
         y="41.472"
         width="266.112"
         height="266.112"
         id="rect530" />
    </clipPath>
    <clipPath
       id="clipPath536">
      <rect
         x="103.104"
         y="41.472"
         width="266.112"
         height="266.112"
         id="rect534" />
    </clipPath>
    <clipPath
       id="clipPath540">
      <rect
         x="103.104"
         y="41.472"
         width="266.112"
         height="266.112"
         id="rect538" />
    </clipPath>
    <clipPath
       id="clipPath544">
      <rect
         x="103.104"
         y="41.472"
         width="266.112"
         height="266.112"
         id="rect542" />
    </clipPath>
    <clipPath
       id="clipPath548">
      <rect
         x="103.104"
         y="41.472"
         width="266.112"
         height="266.112"
         id="rect546" />
    </clipPath>
    <clipPath
       id="clipPath552">
      <rect
         x="103.104"
         y="41.472"
         width="266.112"
         height="266.112"
         id="rect550" />
    </clipPath>
    <clipPath
       id="clipPath556">
      <rect
         x="103.104"
         y="41.472"
         width="266.112"
         height="266.112"
         id="rect554" />
    </clipPath>
    <clipPath
       id="clipPath560">
      <rect
         x="103.104"
         y="41.472"
         width="266.112"
         height="266.112"
         id="rect558" />
    </clipPath>
    <clipPath
       id="clipPath564">
      <rect
         x="103.104"
         y="41.472"
         width="266.112"
         height="266.112"
         id="rect562" />
    </clipPath>
    <clipPath
       id="clipPath568">
      <rect
         x="103.104"
         y="41.472"
         width="266.112"
         height="266.112"
         id="rect566" />
    </clipPath>
    <clipPath
       id="clipPath572">
      <rect
         x="103.104"
         y="41.472"
         width="266.112"
         height="266.112"
         id="rect570" />
    </clipPath>
    <clipPath
       id="clipPath576">
      <rect
         x="103.104"
         y="41.472"
         width="266.112"
         height="266.112"
         id="rect574" />
    </clipPath>
    <clipPath
       id="clipPath580">
      <rect
         x="103.104"
         y="41.472"
         width="266.112"
         height="266.112"
         id="rect578" />
    </clipPath>
    <clipPath
       id="clipPath584">
      <rect
         x="103.104"
         y="41.472"
         width="266.112"
         height="266.112"
         id="rect582" />
    </clipPath>
    <clipPath
       id="clipPath588">
      <rect
         x="103.104"
         y="41.472"
         width="266.112"
         height="266.112"
         id="rect586" />
    </clipPath>
    <clipPath
       id="clipPath592">
      <rect
         x="103.104"
         y="41.472"
         width="266.112"
         height="266.112"
         id="rect590" />
    </clipPath>
    <clipPath
       id="clipPath596">
      <rect
         x="103.104"
         y="41.472"
         width="266.112"
         height="266.112"
         id="rect594" />
    </clipPath>
    <path
       id="mf0b7c7ed91"
       d="M 0,3.535534 C 0.937635,3.535534 1.836992,3.163008 2.5,2.5 3.163008,1.836992 3.535534,0.937635 3.535534,0 3.535534,-0.937635 3.163008,-1.836992 2.5,-2.5 1.836992,-3.163008 0.937635,-3.535534 0,-3.535534 c -0.937635,0 -1.836992,0.372526 -2.5,1.035534 -0.663008,0.663008 -1.035534,1.562365 -1.035534,2.5 0,0.937635 0.372526,1.836992 1.035534,2.5 0.663008,0.663008 1.562365,1.035534 2.5,1.035534 z"
       style="stroke:#000000" />
    <path
       id="m5dbb17985d"
       d="M 0,3.535534 C 0.937635,3.535534 1.836992,3.163008 2.5,2.5 3.163008,1.836992 3.535534,0.937635 3.535534,0 3.535534,-0.937635 3.163008,-1.836992 2.5,-2.5 1.836992,-3.163008 0.937635,-3.535534 0,-3.535534 c -0.937635,0 -1.836992,0.372526 -2.5,1.035534 -0.663008,0.663008 -1.035534,1.562365 -1.035534,2.5 0,0.937635 0.372526,1.836992 1.035534,2.5 0.663008,0.663008 1.562365,1.035534 2.5,1.035534 z"
       style="stroke:#000000" />
  </defs>
  <g
     id="figure_1"
     transform="translate(-0.51631628,-0.34713512)">
    <g
       id="axes_1"
       transform="translate(-102.58768,-41.124865)"
       style="stroke-linecap:butt;stroke-linejoin:round">
      <g
         id="line2d_1">
        <path
           d="m 99.649339,346.6 1.532961,-4.20248 14.58911,-37.21256 14.58912,-34.4303 14.58911,-31.64807 14.58912,-28.86581 14.58911,-26.08357 14.58912,-23.30132 14.58911,-20.51908 14.58911,-17.73682 14.58912,-14.95458 14.58911,-12.172335 14.58912,-9.390085 14.58911,-6.607837 14.58912,-3.82559 14.58911,-1.043343 14.58912,1.738905 14.58911,4.521151 14.58912,7.3034 14.58911,10.085646 14.58912,12.867898 14.58911,15.65014 14.58911,18.43238 14.58912,21.21464 14.58911,23.99688 14.58912,26.77913 L 461.8,238.4295"
           clip-path="url(#p8c963f65ee-3)"
           style="fill:none;stroke:#000000;stroke-width:1.5;stroke-linecap:square"
           id="path11" />
      </g>
      <g
         id="line2d_2">
        <path
           d="m 64.088,346.6 7.91607,-7.91607 14.589114,-14.58911 14.589116,-14.58912 14.58911,-14.58911 14.58912,-14.58912 14.58911,-14.58911 14.58912,-14.58912 14.58911,-14.58911 14.58912,-14.58912 14.58911,-14.58911 14.58911,-14.58912 14.58912,-14.58911 14.58911,-14.58912 14.58912,-14.58911 14.58911,-14.58911 14.58912,-14.58912 L 305.4299,105.2581 320.01902,90.668982 334.60813,76.079868 349.19725,61.490753 363.78636,46.901639 378.37548,32.312524 392.96459,17.72341 407.5537,3.134295 411.688,-1"
           clip-path="url(#p8c963f65ee-3)"
           style="fill:none;stroke:#000000;stroke-width:1.5;stroke-dasharray:5.55, 2.4;stroke-dashoffset:0"
           id="path14" />
      </g>
      <g
         id="line2d_3">
        <path
           d="M 141.12,269.568 V 247.1449"
           clip-path="url(#p8c963f65ee-3)"
           style="fill:none;stroke:#000000;stroke-linecap:square;stroke-opacity:0.25"
           id="path17" />
      </g>
      <g
         id="line2d_4">
        <path
           d="m 141.12,247.1449 h 22.4231"
           clip-path="url(#p8c963f65ee-3)"
           style="fill:none;stroke:#000000;stroke-linecap:square;stroke-opacity:0.25"
           id="path20" />
      </g>
      <g
         id="line2d_5">
        <path
           d="M 163.5431,247.1449 V 202.80446"
           clip-path="url(#p8c963f65ee-3)"
           style="fill:none;stroke:#000000;stroke-linecap:square;stroke-opacity:0.25"
           id="path23" />
      </g>
      <g
         id="line2d_6">
        <path
           d="m 163.5431,202.80446 h 44.34044"
           clip-path="url(#p8c963f65ee-3)"
           style="fill:none;stroke:#000000;stroke-linecap:square;stroke-opacity:0.25"
           id="path26" />
      </g>
      <g
         id="line2d_7">
        <path
           d="M 207.88354,202.80446 V 134.47223"
           clip-path="url(#p8c963f65ee-3)"
           style="fill:none;stroke:#000000;stroke-linecap:square;stroke-opacity:0.25"
           id="path29" />
      </g>
      <g
         id="line2d_8">
        <path
           d="m 207.88354,134.47223 h 68.33223"
           clip-path="url(#p8c963f65ee-3)"
           style="fill:none;stroke:#000000;stroke-linecap:square;stroke-opacity:0.25"
           id="path32" />
      </g>
      <g
         id="line2d_9">
        <path
           d="M 276.21577,134.47223 V 79.488"
           clip-path="url(#p8c963f65ee-3)"
           style="fill:none;stroke:#000000;stroke-linecap:square;stroke-opacity:0.25"
           id="path35" />
      </g>
      <g
         id="line2d_10">
        <path
           d="M 276.21577,79.488 H 331.2"
           clip-path="url(#p8c963f65ee-3)"
           style="fill:none;stroke:#000000;stroke-linecap:square;stroke-opacity:0.25"
           id="path38" />
      </g>
      <g
         id="PathCollection_1">
        <defs
           id="defs42">
          <path
             id="path1470"
             d="M 0,3.535534 C 0.937635,3.535534 1.836992,3.163008 2.5,2.5 3.163008,1.836992 3.535534,0.937635 3.535534,0 3.535534,-0.937635 3.163008,-1.836992 2.5,-2.5 1.836992,-3.163008 0.937635,-3.535534 0,-3.535534 c -0.937635,0 -1.836992,0.372526 -2.5,1.035534 -0.663008,0.663008 -1.035534,1.562365 -1.035534,2.5 0,0.937635 0.372526,1.836992 1.035534,2.5 0.663008,0.663008 1.562365,1.035534 2.5,1.035534 z"
             style="stroke:#000000" />
        </defs>
        <g
           clip-path="url(#p8c963f65ee-3)"
           id="g46">
          <use
             xlink:href="#mf0b7c7ed91"
             x="141.12"
             y="269.56799"
             style="fill:#ffffff;stroke:#000000"
             id="use44"
             width="100%"
             height="100%" />
        </g>
      </g>
      <g
         id="PathCollection_2">
        <defs
           id="defs50">
          <path
             id="path1476"
             d="M 0,3.535534 C 0.937635,3.535534 1.836992,3.163008 2.5,2.5 3.163008,1.836992 3.535534,0.937635 3.535534,0 3.535534,-0.937635 3.163008,-1.836992 2.5,-2.5 1.836992,-3.163008 0.937635,-3.535534 0,-3.535534 c -0.937635,0 -1.836992,0.372526 -2.5,1.035534 -0.663008,0.663008 -1.035534,1.562365 -1.035534,2.5 0,0.937635 0.372526,1.836992 1.035534,2.5 0.663008,0.663008 1.562365,1.035534 2.5,1.035534 z"
             style="stroke:#000000" />
        </defs>
        <g
           clip-path="url(#p8c963f65ee-3)"
           id="g54">
          <use
             xlink:href="#m5dbb17985d"
             x="141.12"
             y="247.1449"
             style="stroke:#000000"
             id="use52"
             width="100%"
             height="100%" />
        </g>
      </g>
      <g
         id="PathCollection_3">
        <g
           clip-path="url(#p8c963f65ee-3)"
           id="g59">
          <use
             xlink:href="#mf0b7c7ed91"
             x="163.54311"
             y="247.1449"
             style="fill:#ffffff;stroke:#000000"
             id="use57"
             width="100%"
             height="100%" />
        </g>
      </g>
      <g
         id="PathCollection_4">
        <g
           clip-path="url(#p8c963f65ee-3)"
           id="g64">
          <use
             xlink:href="#m5dbb17985d"
             x="163.54311"
             y="202.80446"
             style="stroke:#000000"
             id="use62"
             width="100%"
             height="100%" />
        </g>
      </g>
      <g
         id="PathCollection_5">
        <g
           clip-path="url(#p8c963f65ee-3)"
           id="g69">
          <use
             xlink:href="#mf0b7c7ed91"
             x="207.88354"
             y="202.80446"
             style="fill:#ffffff;stroke:#000000"
             id="use67"
             width="100%"
             height="100%" />
        </g>
      </g>
      <g
         id="PathCollection_6">
        <g
           clip-path="url(#p8c963f65ee-3)"
           id="g74">
          <use
             xlink:href="#m5dbb17985d"
             x="207.88354"
             y="134.47223"
             style="stroke:#000000"
             id="use72"
             width="100%"
             height="100%" />
        </g>
      </g>
      <g
         id="PathCollection_7">
        <g
           clip-path="url(#p8c963f65ee-3)"
           id="g79">
          <use
             xlink:href="#mf0b7c7ed91"
             x="276.21576"
             y="134.47223"
             style="fill:#ffffff;stroke:#000000"
             id="use77"
             width="100%"
             height="100%" />
        </g>
      </g>
      <g
         id="PathCollection_8">
        <g
           clip-path="url(#p8c963f65ee-3)"
           id="g84">
          <use
             xlink:href="#m5dbb17985d"
             x="276.21576"
             y="79.487999"
             style="stroke:#000000"
             id="use82"
             width="100%"
             height="100%" />
        </g>
      </g>
      <g
         id="PathCollection_9">
        <g
           clip-path="url(#p8c963f65ee-3)"
           id="g89">
          <use
             xlink:href="#mf0b7c7ed91"
             x="331.20001"
             y="79.487999"
             style="fill:#ffffff;stroke:#000000"
             id="use87"
             width="100%"
             height="100%" />
        </g>
      </g>
    </g>
  </g>
  <defs
     id="defs97">
    <clipPath
       id="p8c963f65ee">
      <rect
         x="103.104"
         y="41.472"
         width="266.112"
         height="266.112"
         id="rect94" />
    </clipPath>
  </defs>
</svg>
